# Blender v2.91.2 OBJ File: 'decor.blend'
# www.blender.org
mtllib collision_05.mtl
o map4.001_Cube.001
v -129.450958 2.239137 228.579254
v -129.450958 16.406424 228.579254
v -132.135056 -3.116839 152.148285
v -132.135056 11.050448 152.148285
v -115.283669 2.239137 228.579254
v -115.283669 16.406424 228.579254
v -117.967758 -3.116839 152.148285
v -117.967758 11.050448 152.148285
v -157.886566 -3.116839 152.148285
v -155.202454 2.239137 228.579254
v -155.202454 16.406424 228.579254
v -157.886566 11.050448 152.148285
v -101.433006 11.050448 152.148285
v -101.433006 -3.116839 152.148285
v -98.748909 2.239137 228.579254
v -98.748909 16.406424 228.579254
v -129.450958 2.239137 285.652222
v -129.450958 16.406424 285.652222
v -115.283669 16.406424 285.652222
v -115.283669 2.239137 285.652222
v -155.202454 2.239137 285.652222
v -155.202454 16.406424 285.652222
v -98.748909 16.406424 285.652222
v -98.748909 2.239137 285.652222
v 22.798981 16.406424 228.579254
v 22.798981 2.239137 228.579254
v 22.798981 16.406424 285.652222
v 22.798981 2.239137 285.652222
v 179.201248 16.406424 228.579254
v 179.201248 2.239137 228.579254
v 179.201248 16.406424 285.652222
v 179.201248 2.239137 285.652222
v 268.034363 16.406424 228.579254
v 268.034363 2.239137 228.579254
v 268.034363 16.406424 285.652222
v 268.034363 2.239137 285.652222
v 292.275818 16.406424 228.579254
v 292.275818 2.239137 228.579254
v 292.275818 16.406424 285.652222
v 292.275818 2.239137 285.652222
v 179.201248 16.406424 159.721100
v 179.201248 2.239137 159.721100
v 268.034363 16.406424 159.721100
v 268.034363 2.239137 159.721100
v 292.275818 16.406424 159.721100
v 292.275818 2.239137 159.721100
v 386.293884 11.004400 228.579254
v 386.293884 11.004400 159.721100
v 386.293884 25.171688 228.579254
v 386.293884 25.171688 159.721100
v 481.044495 11.004400 228.579254
v 481.044495 11.004400 159.721100
v 481.044495 25.171688 228.579254
v 481.044495 25.171688 159.721100
v 386.293884 25.171688 383.086365
v 386.293884 11.004400 383.086365
v 481.044495 25.171688 383.086365
v 481.044495 11.004400 383.086365
v 386.293884 25.171688 447.434998
v 386.293884 11.004400 447.434998
v 481.044495 25.171688 447.434998
v 481.044495 11.004400 447.434998
v 204.807632 13.291900 383.086365
v 204.807632 -0.875387 383.086365
v 204.807632 13.291900 447.434998
v 204.807632 -0.875387 447.434998
v 386.293884 25.171688 339.580444
v 386.293884 11.004400 339.580444
v 204.807632 13.291900 339.580444
v 204.807632 -0.875387 339.580444
v 4.477951 13.291900 383.086365
v 4.477951 -0.875387 383.086365
v 4.477951 13.291900 447.434998
v 4.477951 -0.875387 447.434998
v 4.477951 13.291900 339.580444
v 4.477951 -0.875387 339.580444
v -281.216858 13.291900 383.086365
v -281.216858 -0.875387 383.086365
v -281.216858 13.291900 447.434998
v -281.216858 -0.875387 447.434998
v -281.216858 6.866305 339.580444
v -281.216858 -0.875387 339.580444
v 4.477951 -0.875387 534.613159
v -281.216858 -0.875387 534.613159
v 4.477951 13.291900 534.613159
v -281.216858 13.291900 534.613159
v 4.477951 -0.875387 605.792114
v -281.216858 -0.875387 605.792114
v 4.477951 13.291900 605.792114
v -281.216858 13.291900 605.792114
v -232.165222 -0.875387 447.434998
v -232.165222 -0.875387 383.086365
v -232.165222 -0.875387 339.580444
v -232.165222 13.291900 383.086365
v -232.165222 13.291900 447.434998
v -232.165222 6.866305 339.580444
v -232.165222 -0.875387 534.613159
v -232.165222 13.291900 534.613159
v -232.165222 -0.875387 605.792114
v -232.165222 13.291900 605.792114
v -281.216858 6.866305 208.515594
v -281.216858 -0.875387 208.515594
v -232.165222 6.866305 208.515594
v -232.165222 -0.875387 208.515594
v -281.216858 13.291900 96.168098
v -281.216858 -0.875387 96.168098
v -232.165222 13.291900 96.168098
v -232.165222 -0.875387 96.168098
v -402.831482 13.291900 339.580444
v -402.831482 -0.875387 339.580444
v -402.831482 13.291900 208.515594
v -402.831482 -0.875387 208.515594
v -402.831482 13.291900 96.168098
v -402.831482 -0.875387 96.168098
v -399.222656 13.291900 383.086365
v -399.222656 -0.875387 383.086365
v -399.222656 13.291900 447.434998
v -399.222656 -0.875387 447.434998
v -399.222656 6.866305 339.580444
v -399.222656 -0.875387 339.580444
v -399.222656 13.291900 534.613159
v -399.222656 -0.875387 534.613159
v -399.222656 13.291900 605.792114
v -399.222656 -0.875387 605.792114
v 204.807632 13.291900 286.487793
v 204.807632 -0.875387 286.487793
v 4.477951 13.291900 286.487793
v 4.477951 -0.875387 286.487793
v 334.662537 13.291900 339.580444
v 334.662537 -0.875387 339.580444
v 334.662537 13.291900 286.487793
v 334.662537 -0.875387 286.487793
v 365.526672 16.406424 228.579254
v 365.526672 2.239137 228.579254
v 365.526672 16.406424 285.652222
v 365.526672 2.239137 285.652222
vn 0.0000 0.9976 -0.0699
vn 0.0000 0.0000 -1.0000
vn -1.0000 0.0000 0.0000
vn 0.0000 -0.9976 0.0699
vn -0.9994 0.0000 0.0351
vn 0.0000 -1.0000 0.0000
vn 0.9994 0.0000 -0.0351
vn 0.0000 1.0000 0.0000
vn 0.0000 0.0000 1.0000
vn -0.0928 0.9957 0.0000
vn 0.0928 -0.9957 0.0000
vn 1.0000 0.0000 0.0000
vn -0.0653 0.9979 0.0000
vn 0.0653 -0.9979 0.0000
vn 0.0000 0.9893 -0.1461
vn -0.0135 0.9972 -0.0736
vn 0.0000 0.9984 0.0571
vn 0.0528 0.9986 0.0000
vn 0.0264 0.9992 0.0286
usemtl collision
s off
f 2//1 4//1 12//1 11//1
f 3//2 4//2 8//2 7//2
f 7//2 8//2 13//2 14//2
f 11//3 10//3 21//3 22//3
f 3//4 7//4 5//4 1//4
f 8//1 4//1 2//1 6//1
f 10//5 11//5 12//5 9//5
f 3//4 1//4 10//4 9//4
f 4//2 3//2 9//2 12//2
f 5//6 15//6 24//6 20//6
f 14//7 13//7 16//7 15//7
f 2//8 11//8 22//8 18//8
f 5//4 7//4 14//4 15//4
f 8//1 6//1 16//1 13//1
f 20//9 19//9 18//9 17//9
f 17//9 18//9 22//9 21//9
f 19//9 20//9 24//9 23//9
f 6//8 2//8 18//8 19//8
f 10//6 1//6 17//6 21//6
f 16//8 6//8 19//8 23//8
f 23//9 24//9 28//9 27//9
f 1//6 5//6 20//6 17//6
f 28//6 26//6 30//6 32//6
f 24//6 15//6 26//6 28//6
f 15//2 16//2 25//2 26//2
f 16//8 23//8 27//8 25//8
f 29//8 31//8 35//8 33//8
f 26//2 25//2 29//2 30//2
f 25//8 27//8 31//8 29//8
f 27//9 28//9 32//9 31//9
f 35//9 36//9 40//9 39//9
f 31//9 32//9 36//9 35//9
f 32//6 30//6 34//6 36//6
f 33//8 37//8 45//8 43//8
f 40//6 38//6 134//6 136//6
f 36//6 34//6 38//6 40//6
f 45//10 37//10 49//10 50//10
f 33//8 35//8 39//8 37//8
f 42//2 41//2 43//2 44//2
f 44//2 43//2 45//2 46//2
f 34//6 30//6 42//6 44//6
f 29//8 33//8 43//8 41//8
f 38//6 34//6 44//6 46//6
f 30//3 29//3 41//3 42//3
f 48//2 50//2 54//2 52//2
f 37//9 38//9 47//9 49//9
f 38//11 46//11 48//11 47//11
f 46//2 45//2 50//2 48//2
f 53//12 51//12 52//12 54//12
f 47//6 48//6 52//6 51//6
f 50//8 49//8 53//8 54//8
f 53//8 49//8 55//8 57//8
f 58//12 57//12 61//12 62//12
f 51//12 53//12 57//12 58//12
f 47//6 51//6 58//6 56//6
f 49//3 47//3 56//3 55//3
f 59//9 60//9 62//9 61//9
f 56//6 58//6 62//6 60//6
f 60//9 59//9 65//9 66//9
f 57//8 55//8 59//8 61//8
f 70//6 64//6 72//6 76//6
f 59//13 55//13 63//13 65//13
f 56//14 64//14 70//14 68//14
f 56//14 60//14 66//14 64//14
f 67//2 68//2 70//2 69//2
f 55//12 56//12 68//12 67//12
f 63//13 55//13 67//13 69//13
f 65//8 63//8 71//8 73//8
f 93//6 92//6 78//6 82//6
f 92//6 91//6 80//6 78//6
f 66//9 65//9 73//9 74//9
f 63//8 69//8 75//8 71//8
f 64//6 66//6 74//6 72//6
f 69//9 70//9 130//9 129//9
f 81//2 82//2 120//2 119//2
f 86//8 79//8 117//8 121//8
f 95//8 94//8 77//8 79//8
f 79//8 77//8 115//8 117//8
f 94//15 96//15 81//15 77//15
f 96//12 93//12 104//12 103//12
f 97//6 83//6 87//6 99//6
f 91//6 74//6 83//6 97//6
f 95//8 79//8 86//8 98//8
f 74//12 73//12 85//12 83//12
f 99//9 100//9 90//9 88//9
f 98//8 86//8 90//8 100//8
f 83//12 85//12 89//12 87//12
f 77//15 81//15 119//15 115//15
f 85//8 98//8 100//8 89//8
f 87//9 89//9 100//9 99//9
f 73//8 95//8 98//8 85//8
f 80//6 91//6 97//6 84//6
f 84//6 97//6 99//6 88//6
f 75//2 76//2 93//2 96//2
f 71//16 75//16 96//16 94//16
f 73//8 71//8 94//8 95//8
f 72//6 74//6 91//6 92//6
f 76//6 72//6 92//6 93//6
f 104//6 102//6 106//6 108//6
f 93//6 82//6 102//6 104//6
f 102//6 82//6 110//6 112//6
f 81//8 96//8 103//8 101//8
f 107//2 108//2 106//2 105//2
f 105//2 106//2 114//2 113//2
f 103//12 104//12 108//12 107//12
f 101//17 103//17 107//17 105//17
f 110//3 109//3 111//3 112//3
f 112//3 111//3 113//3 114//3
f 82//9 81//9 109//9 110//9
f 81//18 101//18 111//18 109//18
f 101//19 105//19 113//19 111//19
f 106//6 102//6 112//6 114//6
f 115//3 116//3 118//3 117//3
f 116//3 115//3 119//3 120//3
f 117//3 118//3 122//3 121//3
f 121//3 122//3 124//3 123//3
f 84//6 88//6 124//6 122//6
f 82//6 78//6 116//6 120//6
f 88//9 90//9 123//9 124//9
f 78//6 80//6 118//6 116//6
f 90//8 86//8 121//8 123//8
f 80//6 84//6 122//6 118//6
f 125//2 126//2 128//2 127//2
f 76//3 75//3 127//3 128//3
f 75//8 69//8 125//8 127//8
f 70//6 76//6 128//6 126//6
f 129//12 130//12 132//12 131//12
f 70//6 126//6 132//6 130//6
f 126//2 125//2 131//2 132//2
f 125//8 69//8 129//8 131//8
f 134//12 133//12 135//12 136//12
f 38//2 37//2 133//2 134//2
f 37//8 39//8 135//8 133//8
f 39//9 40//9 136//9 135//9
