# Blender v2.91.2 OBJ File: 'maps_voitures.blend'
# www.blender.org
mtllib collision_02.mtl
o Cube.001_Cube
v 213.262527 -4.725049 -86.928467
v 213.262527 6.064399 -86.928467
v 213.262527 -4.725049 -97.717911
v 213.262527 6.064399 -97.717911
v 236.543961 -4.725049 -86.928467
v 236.543961 6.064399 -86.928467
v 236.543961 -4.725049 -97.717911
v 236.543961 6.064399 -97.717911
v 213.262527 -4.725049 -92.323189
v 213.262527 0.669675 -86.928467
v 213.262527 6.064399 -92.323189
v 213.262527 0.669675 -97.717911
v 231.149231 -4.725049 -97.717911
v 231.149231 6.064399 -97.717911
v 236.543961 0.669675 -97.717911
v 236.543961 -4.725049 -92.323189
v 236.543961 6.064399 -92.323189
v 236.543961 0.669675 -86.928467
v 231.149231 -4.725049 -86.928467
v 231.149231 -4.725049 -92.323189
v 231.149231 0.669675 -86.928467
v 236.543961 0.669675 -92.323189
v 231.149231 0.669675 -97.717911
v 213.262527 0.669675 -92.323189
v 213.262527 32.284603 -92.323189
v 213.262527 32.284603 -97.717911
v 231.149231 32.284603 -97.717911
v 236.543961 32.284603 -97.717911
v 236.543961 32.284603 -92.323189
v 236.543961 32.284603 -86.928467
v 231.149231 32.284603 -86.928467
v 213.262527 32.284603 -86.928467
v 231.149231 32.284603 -92.323189
v 192.275726 0.669675 15.243073
v 192.275726 6.064399 15.243073
v -90.425049 0.669675 15.243073
v 215.557159 6.064399 15.243073
v 215.557159 0.669675 15.243073
v 192.275726 32.284603 15.243073
v 210.162430 0.669675 15.243073
v 210.162430 32.284603 15.243073
v 215.557159 32.284603 15.243073
v 192.275726 0.669675 30.818634
v 192.275726 6.064399 30.818634
v 210.162430 6.064399 30.818634
v 215.557159 6.064399 30.818634
v 215.557159 0.669675 30.818634
v 192.275726 32.284603 30.818634
v 210.162430 0.669675 30.818634
v 210.162430 32.284603 30.818634
v 215.557159 32.284603 30.818634
v -90.425049 6.064399 15.243073
v -90.425049 32.284603 15.243073
v -90.425049 32.284603 30.818634
v -90.425049 0.669675 30.818634
v -90.425049 6.064399 30.818634
vn -1.0000 0.0000 0.0000
vn 0.0000 0.0000 -1.0000
vn 1.0000 0.0000 0.0000
vn 0.0000 -1.0000 0.0000
vn 0.9795 0.0000 0.2012
vn 0.0000 0.0000 1.0000
vn -0.9795 0.0000 -0.2012
vn 0.0000 1.0000 0.0000
usemtl collision
s off
f 24//1 11//1 4//1 12//1
f 23//2 14//2 8//2 15//2
f 22//3 17//3 6//3 18//3
f 10//4 21//4 40//4 34//4
f 20//4 16//4 5//4 19//4
f 18//5 6//5 37//5 38//5
f 11//1 2//1 32//1 25//1
f 8//2 14//2 27//2 28//2
f 17//3 8//3 28//3 29//3
f 9//4 20//4 19//4 1//4
f 3//4 13//4 20//4 9//4
f 13//4 7//4 16//4 20//4
f 19//6 21//6 10//6 1//6
f 5//6 18//6 21//6 19//6
f 2//7 10//7 34//7 35//7
f 16//3 22//3 18//3 5//3
f 7//3 15//3 22//3 16//3
f 15//3 8//3 17//3 22//3
f 13//2 23//2 15//2 7//2
f 3//2 12//2 23//2 13//2
f 12//2 4//2 14//2 23//2
f 9//1 24//1 12//1 3//1
f 1//1 10//1 24//1 9//1
f 10//1 2//1 11//1 24//1
f 33//8 25//8 32//8 31//8
f 29//8 33//8 31//8 30//8
f 28//8 27//8 33//8 29//8
f 27//8 26//8 25//8 33//8
f 6//3 17//3 29//3 30//3
f 14//2 4//2 26//2 27//2
f 4//1 11//1 25//1 26//1
f 31//8 32//8 39//8 41//8
f 35//2 34//2 36//2 52//2
f 40//4 38//4 47//4 49//4
f 41//8 39//8 48//8 50//8
f 37//3 42//3 51//3 46//3
f 6//5 30//5 42//5 37//5
f 32//7 2//7 35//7 39//7
f 30//8 31//8 41//8 42//8
f 21//4 18//4 38//4 40//4
f 49//6 45//6 44//6 43//6
f 45//6 46//6 51//6 50//6
f 47//6 46//6 45//6 49//6
f 44//6 45//6 50//6 48//6
f 38//3 37//3 46//3 47//3
f 39//2 35//2 52//2 53//2
f 42//8 41//8 50//8 51//8
f 34//4 40//4 49//4 43//4
f 53//1 52//1 56//1 54//1
f 52//1 36//1 55//1 56//1
f 34//4 43//4 55//4 36//4
f 44//6 48//6 54//6 56//6
f 43//6 44//6 56//6 55//6
f 48//8 39//8 53//8 54//8
o Cube.008_Cube.002
v 242.572830 2.027496 -204.728317
v 242.572830 12.816944 -204.728317
v 242.572830 2.027496 -215.517776
v 242.572830 12.816944 -215.517776
v 265.854248 2.027496 -204.728317
v 265.854248 12.816944 -204.728317
v 265.854248 2.027496 -215.517776
v 265.854248 12.816944 -215.517776
v 242.572830 2.027496 -210.123047
v 242.572830 7.422220 -204.728317
v 242.572830 12.816944 -210.123047
v 242.572830 7.422220 -215.517776
v 260.459534 2.027496 -215.517776
v 260.459534 12.816944 -215.517776
v 265.854248 7.422220 -215.517776
v 265.854248 2.027496 -210.123047
v 265.854248 12.816944 -210.123047
v 265.854248 7.422220 -204.728317
v 260.459534 2.027496 -204.728317
v 260.459534 2.027496 -210.123047
v 260.459534 7.422220 -204.728317
v 265.854248 7.422220 -210.123047
v 260.459534 7.422220 -215.517776
v 242.572830 7.422220 -210.123047
v 242.572830 39.037148 -210.123047
v 242.572830 39.037148 -215.517776
v 260.459534 39.037148 -215.517776
v 265.854248 39.037148 -215.517776
v 265.854248 39.037148 -210.123047
v 265.854248 39.037148 -204.728317
v 260.459534 39.037148 -204.728317
v 242.572830 39.037148 -204.728317
v 260.459534 39.037148 -210.123047
v 221.586029 7.422220 -102.556786
v 221.586029 12.816944 -102.556786
v 239.472733 12.816944 -102.556786
v 244.867462 12.816944 -102.556786
v 244.867462 7.422220 -102.556786
v 221.586029 39.037148 -102.556786
v 239.472733 7.422220 -102.556786
v 239.472733 39.037148 -102.556786
v 244.867462 39.037148 -102.556786
vn -1.0000 0.0000 0.0000
vn 0.0000 0.0000 -1.0000
vn 1.0000 0.0000 0.0000
vn 0.0000 -1.0000 0.0000
vn 0.9795 0.0000 0.2012
vn 0.0000 0.0000 1.0000
vn -0.9795 0.0000 -0.2012
vn 0.0000 1.0000 0.0000
usemtl collision
s off
f 80//9 67//9 60//9 68//9
f 79//10 70//10 64//10 71//10
f 78//11 73//11 62//11 74//11
f 66//12 77//12 96//12 90//12
f 76//12 72//12 61//12 75//12
f 74//13 62//13 93//13 94//13
f 67//9 58//9 88//9 81//9
f 64//10 70//10 83//10 84//10
f 73//11 64//11 84//11 85//11
f 65//12 76//12 75//12 57//12
f 59//12 69//12 76//12 65//12
f 69//12 63//12 72//12 76//12
f 75//14 77//14 66//14 57//14
f 61//14 74//14 77//14 75//14
f 58//15 66//15 90//15 91//15
f 72//11 78//11 74//11 61//11
f 63//11 71//11 78//11 72//11
f 71//11 64//11 73//11 78//11
f 69//10 79//10 71//10 63//10
f 59//10 68//10 79//10 69//10
f 68//10 60//10 70//10 79//10
f 65//9 80//9 68//9 59//9
f 57//9 66//9 80//9 65//9
f 66//9 58//9 67//9 80//9
f 89//16 81//16 88//16 87//16
f 85//16 89//16 87//16 86//16
f 84//16 83//16 89//16 85//16
f 83//16 82//16 81//16 89//16
f 62//11 73//11 85//11 86//11
f 70//10 60//10 82//10 83//10
f 60//9 67//9 81//9 82//9
f 87//16 88//16 95//16 97//16
f 96//14 92//14 91//14 90//14
f 92//14 93//14 98//14 97//14
f 94//14 93//14 92//14 96//14
f 91//14 92//14 97//14 95//14
f 62//13 86//13 98//13 93//13
f 88//15 58//15 91//15 95//15
f 86//16 87//16 97//16 98//16
f 77//12 74//12 94//12 96//12
o Cube.009_Cube.003
v 262.196655 2.022458 -322.170441
v 262.196655 12.811907 -322.170441
v 261.162323 2.022458 -332.910187
v 261.162323 12.811907 -332.910187
v 285.370850 2.022458 -324.402283
v 285.370850 12.811907 -324.402283
v 284.336548 2.022458 -335.142029
v 284.336548 12.811907 -335.142029
v 261.679504 2.022458 -327.540314
v 262.196655 7.417182 -322.170441
v 261.679504 12.811907 -327.540314
v 261.162323 7.417182 -332.910187
v 278.966675 2.022458 -334.624878
v 284.336548 7.417182 -335.142029
v 284.853699 2.022458 -329.772156
v 284.853699 12.811907 -329.772156
v 285.370850 7.417182 -324.402283
v 280.000977 2.022458 -323.885132
v 279.483826 2.022458 -329.255005
v 280.000977 7.417182 -323.885132
v 284.853699 7.417182 -329.772156
v 261.679504 7.417182 -327.540314
v 261.679504 39.032116 -327.540314
v 261.162323 39.032116 -332.910187
v 278.966675 39.032116 -334.624878
v 284.336548 39.032116 -335.142029
v 284.853699 39.032116 -329.772156
v 285.370850 39.032116 -324.402283
v 280.000977 39.032116 -323.885132
v 262.196655 39.032116 -322.170441
v 279.483826 39.032116 -329.255005
v 251.101013 7.417182 -218.457550
v 251.101013 12.811907 -218.457550
v 268.905365 12.811907 -220.172241
v 274.275238 12.811907 -220.689392
v 274.275238 7.417182 -220.689392
v 251.101013 39.032116 -218.457550
v 268.905365 7.417182 -220.172241
v 268.905365 39.032116 -220.172241
v 274.275238 39.032116 -220.689392
v 247.737854 7.417182 -472.302734
v 247.737854 2.022458 -472.302734
v 265.542175 2.022458 -474.017395
v 265.542175 12.811907 -474.017395
v 270.912048 12.811907 -474.534576
v 270.912048 7.417182 -474.534576
v 270.912048 2.022458 -474.534576
v 247.737854 12.811907 -472.302734
v 265.542175 39.032116 -474.017395
v 270.912048 39.032116 -474.534576
v 265.542175 7.417182 -474.017395
v 247.737854 39.032116 -472.302734
v 249.368683 7.417182 -455.369019
v 272.542908 7.417182 -457.600830
v 272.542908 2.022458 -457.600830
v 267.173035 2.022458 -457.083679
v 267.173035 39.032116 -457.083679
v 249.368683 12.811907 -455.369019
v 249.368683 39.032116 -455.369019
v 249.368683 2.022458 -455.369019
v 272.542908 12.811907 -457.600830
v 272.542908 39.032116 -457.600830
v 194.146088 7.417182 -450.050690
v 192.515244 7.417182 -466.984406
v 194.146088 39.032116 -450.050690
v 192.515244 39.032116 -466.984406
v 192.515244 2.022458 -466.984406
v 192.515244 12.811907 -466.984406
v 194.146088 12.811907 -450.050690
v 194.146088 2.022458 -450.050690
v 185.077103 7.417182 -449.177277
v 183.446259 7.417182 -466.110992
v 185.077103 39.032116 -449.177277
v 183.446259 39.032116 -466.110992
v 183.446259 2.022458 -466.110992
v 183.446259 12.811907 -466.110992
v 185.077103 12.811907 -449.177277
v 185.077103 2.022458 -449.177277
v 166.530090 12.811907 -356.315002
v 175.599091 12.811907 -357.188416
v 175.599091 39.032116 -357.188416
v 166.530090 39.032116 -356.315002
v 175.599091 7.417182 -357.188416
v 175.599091 2.022458 -357.188416
v 166.530090 7.417182 -356.315002
v 166.530090 2.022458 -356.315002
v 170.040833 12.811907 -319.861389
v 179.109833 12.811907 -320.734802
v 179.109833 39.032116 -320.734802
v 170.040833 39.032116 -319.861389
v 179.109833 7.417182 -320.734802
v 179.109833 2.022458 -320.734802
v 170.040833 7.417182 -319.861389
v 170.040833 2.022458 -319.861389
v 103.517120 7.417182 -329.670593
v 114.739624 7.417182 -364.530975
v 114.739624 12.811907 -364.530975
v 114.739624 39.032116 -364.530975
v 114.739624 2.022458 -364.530975
v 103.517120 2.022458 -329.670593
v 103.517120 12.811907 -329.670593
v 103.517120 39.032116 -329.670593
v 40.699722 7.417182 -349.893250
v 51.922256 7.417182 -384.753632
v 51.922256 12.811907 -384.753632
v 51.922256 39.032116 -384.753632
v 51.922256 2.022458 -384.753632
v 40.699722 2.022458 -349.893250
v 40.699722 12.811907 -349.893250
v 40.699722 39.032116 -349.893250
v 9.702820 7.417182 -359.872009
v 20.925385 7.417182 -394.732391
v 20.925385 12.811907 -394.732391
v 20.925385 39.032116 -394.732391
v 20.925385 2.022458 -394.732391
v 9.702820 2.022458 -359.872009
v 9.702820 12.811907 -359.872009
v 9.702820 39.032116 -359.872009
v -20.140686 7.417182 -370.573608
v -21.145538 7.417182 -407.182129
v -21.145538 12.811907 -407.182129
v -21.145538 39.032116 -407.182129
v -21.145538 2.022458 -407.182129
v -20.140686 2.022458 -370.573608
v -20.140686 12.811907 -370.573608
v -20.140686 39.032116 -370.573608
vn -0.9954 0.0000 0.0959
vn 0.9954 0.0000 -0.0959
vn 0.0000 -1.0000 0.0000
vn 0.9943 0.0000 0.1064
vn 0.0959 0.0000 0.9954
vn -0.9943 0.0000 -0.1064
vn 0.0000 1.0000 -0.0000
vn -0.0959 0.0000 -0.9954
vn -0.9806 0.0000 -0.1959
vn 0.9806 0.0000 0.1959
vn -0.1459 0.0000 0.9893
vn -0.3064 0.0000 0.9519
vn 0.3064 0.0000 -0.9519
vn 0.1567 0.0000 -0.9876
vn -0.3375 0.0000 0.9413
vn 0.2838 0.0000 -0.9589
vn -0.9996 0.0000 0.0274
usemtl collision
s off
f 120//17 109//17 102//17 110//17
f 160//18 159//18 143//18 148//18
f 119//18 114//18 104//18 115//18
f 108//19 118//19 136//19 130//19
f 117//19 113//19 103//19 116//19
f 115//20 104//20 133//20 134//20
f 109//17 100//17 128//17 121//17
f 151//21 156//21 167//21 161//21
f 114//18 106//18 124//18 125//18
f 107//19 117//19 116//19 99//19
f 101//19 111//19 117//19 107//19
f 111//19 105//19 113//19 117//19
f 116//21 118//21 108//21 99//21
f 103//21 115//21 118//21 116//21
f 100//22 108//22 130//22 131//22
f 113//18 119//18 115//18 103//18
f 105//18 112//18 119//18 113//18
f 112//18 106//18 114//18 119//18
f 152//18 153//18 145//18 144//18
f 153//19 154//19 141//19 145//19
f 157//23 155//23 147//23 150//23
f 107//17 120//17 110//17 101//17
f 99//17 108//17 120//17 107//17
f 108//17 100//17 109//17 120//17
f 129//23 121//23 128//23 127//23
f 125//23 129//23 127//23 126//23
f 124//23 123//23 129//23 125//23
f 123//23 122//23 121//23 129//23
f 104//18 114//18 125//18 126//18
f 139//24 140//24 165//24 162//24
f 102//17 109//17 121//17 122//17
f 127//23 128//23 135//23 137//23
f 136//21 132//21 131//21 130//21
f 132//21 133//21 138//21 137//21
f 134//21 133//21 132//21 136//21
f 131//21 132//21 137//21 135//21
f 104//20 126//20 138//20 133//20
f 128//22 100//22 131//22 135//22
f 126//23 127//23 137//23 138//23
f 118//19 115//19 134//19 136//19
f 149//24 142//24 143//24 144//24
f 143//24 142//24 147//24 148//24
f 141//24 149//24 144//24 145//24
f 140//24 139//24 149//24 141//24
f 139//24 146//24 142//24 149//24
f 142//24 146//24 150//24 147//24
f 154//19 158//19 140//19 141//19
f 159//18 152//18 144//18 143//18
f 146//24 139//24 162//24 166//24
f 155//23 160//23 148//23 147//23
f 123//23 124//23 160//23 155//23
f 110//17 102//17 156//17 151//17
f 106//18 112//18 152//18 159//18
f 111//19 101//19 158//19 154//19
f 102//17 122//17 157//17 156//17
f 122//23 123//23 155//23 157//23
f 105//19 111//19 154//19 153//19
f 112//18 105//18 153//18 152//18
f 101//17 110//17 151//17 158//17
f 124//18 106//18 159//18 160//18
f 164//24 166//24 174//24 172//24
f 165//19 168//19 176//19 173//19
f 171//25 175//25 177//25 180//25
f 157//23 150//23 164//23 163//23
f 158//21 151//21 161//21 168//21
f 140//19 158//19 168//19 165//19
f 150//24 146//24 166//24 164//24
f 156//21 157//21 163//21 167//21
f 176//17 169//17 170//17 173//17
f 175//17 171//17 172//17 174//17
f 169//17 175//17 174//17 170//17
f 162//24 165//24 173//24 170//24
f 176//19 168//19 182//19 184//19
f 167//26 163//26 179//26 178//26
f 166//24 162//24 170//24 174//24
f 163//23 164//23 172//23 171//23
f 178//18 179//18 187//18 186//18
f 188//23 180//23 196//23 200//23
f 184//19 192//19 198//19 197//19
f 168//26 161//26 181//26 182//26
f 161//26 167//26 178//26 181//26
f 163//23 171//23 180//23 179//23
f 169//25 176//25 184//25 183//25
f 175//25 169//25 183//25 177//25
f 186//21 187//21 188//21 185//21
f 190//21 189//21 191//21 192//21
f 189//21 186//21 185//21 191//21
f 179//23 180//23 188//23 187//23
f 184//19 182//19 190//19 192//19
f 185//27 188//27 200//27 199//27
f 182//18 181//18 189//18 190//18
f 181//18 178//18 186//18 189//18
f 197//19 198//19 206//19 205//19
f 199//28 200//28 208//28 207//28
f 195//29 194//29 202//29 203//29
f 183//30 184//30 197//30 194//30
f 177//30 183//30 194//30 195//30
f 192//27 191//27 193//27 198//27
f 191//27 185//27 199//27 193//27
f 180//30 177//30 195//30 196//30
f 202//29 205//29 213//29 210//29
f 201//28 207//28 215//28 209//28
f 206//28 201//28 209//28 214//28
f 196//29 195//29 203//29 204//29
f 200//23 196//23 204//23 208//23
f 198//28 193//28 201//28 206//28
f 193//28 199//28 207//28 201//28
f 194//29 197//29 205//29 202//29
f 214//31 209//31 217//31 222//31
f 216//23 212//23 220//23 224//23
f 212//32 211//32 219//32 220//32
f 203//29 202//29 210//29 211//29
f 207//28 208//28 216//28 215//28
f 205//19 206//19 214//19 213//19
f 204//29 203//29 211//29 212//29
f 208//23 204//23 212//23 216//23
f 219//33 218//33 217//33 223//33
f 218//33 221//33 222//33 217//33
f 220//33 219//33 223//33 224//33
f 209//31 215//31 223//31 217//31
f 210//32 213//32 221//32 218//32
f 211//32 210//32 218//32 219//32
f 215//31 216//31 224//31 223//31
f 213//19 214//19 222//19 221//19
o Cube.010
v 377.527008 0.222141 -272.570526
v 377.473083 10.981591 -271.768433
v 375.504425 0.999970 -471.682159
v 375.450470 11.759406 -470.880066
v 400.395355 0.660585 -276.914307
v 400.341431 11.420036 -276.112213
v 398.372803 1.438416 -476.025940
v 398.318878 12.197851 -475.223816
v 376.515717 0.611055 -317.993652
v 377.500031 5.601863 -272.169495
v 376.461792 11.370501 -317.191528
v 375.477448 6.379688 -471.281097
v 393.073792 1.336821 -475.019409
v 362.339294 6.062872 -540.480591
v 398.345856 6.818133 -475.624878
v 399.384064 1.049500 -322.337402
v 399.330139 11.808945 -321.535309
v 400.368378 6.040308 -276.513245
v 395.096375 0.558990 -275.907776
v 394.085052 0.947904 -321.330872
v 395.069427 5.938713 -275.506744
v 399.357117 6.429217 -321.936340
v 362.312317 11.442590 -540.079468
v 376.488770 5.990772 -317.592590
v 376.330750 37.517815 -315.242249
v 375.319427 37.906715 -468.930786
v 392.888824 38.243561 -472.268005
v 398.187836 38.345161 -473.274536
v 399.199097 37.956261 -319.586029
v 400.210388 37.567352 -274.162933
v 394.911407 37.465755 -273.156403
v 377.342010 37.128906 -269.819153
v 393.900085 37.854664 -318.579498
v 376.038483 -2.159002 -112.681625
v 376.011505 3.220726 -112.280563
v 393.580902 3.557576 -115.617813
v 398.879913 3.659172 -116.624344
v 398.906891 -1.720556 -117.025406
v 375.880463 29.368038 -110.331299
v 393.607849 -1.822151 -116.018875
v 393.449829 29.704889 -113.668549
v 398.748871 29.806484 -114.675079
v 365.831238 10.089326 -521.690369
v 365.858185 4.709608 -522.091431
v 383.427582 5.046459 -525.428711
v 249.585083 2.480358 -558.558411
v 388.672668 15.907500 -525.633118
v 388.699615 10.527772 -526.034180
v 388.726593 5.148054 -526.435181
v 365.804260 15.469054 -521.289307
v 383.242584 41.953201 -522.677307
v 388.541626 42.054794 -523.683838
v 249.558121 7.860077 -558.157349
v 365.673218 41.616348 -519.340027
v 379.908661 6.399723 -543.817810
v 379.854736 17.159168 -543.015686
v 385.153748 17.260765 -544.022217
v 385.180725 11.881036 -544.423340
v 385.207672 6.501318 -544.824341
v 362.285370 16.822319 -539.678467
v 379.723694 43.306465 -541.066406
v 385.022705 43.408058 -542.072998
v 379.881714 11.779441 -543.416748
v 362.154297 42.969612 -537.729187
v 246.039215 9.213341 -576.546509
v 249.531158 13.239804 -557.756287
v 246.012253 14.593068 -576.145447
v 249.400101 39.387100 -555.807007
v 245.881195 40.740372 -574.196167
v 246.066177 3.833622 -576.947571
v 145.194366 5.859158 -538.333740
v 145.221329 0.479439 -538.734802
v 141.675461 7.212421 -556.722900
v 145.167404 11.238885 -537.932678
v 141.648499 12.592149 -556.321838
v 145.036346 37.386185 -535.983398
v 141.517441 38.739449 -554.372559
v 141.702423 1.832703 -557.123962
v -86.849304 4.727230 -534.332214
v -86.822357 -0.652489 -534.733276
v -90.368195 6.080490 -552.721252
v -86.876282 10.106957 -533.931152
v -90.395172 11.460217 -552.320190
v -87.007324 36.254265 -531.981873
v -90.526215 37.607521 -550.370911
v -90.341248 0.700771 -553.122314
v -113.389374 4.218390 -529.291016
v -113.362427 -1.161328 -529.692078
v -116.908264 5.571648 -547.680054
v -113.416351 9.598118 -528.889954
v -116.935242 10.951375 -547.278992
v -113.547394 35.745422 -526.940674
v -117.066284 37.098679 -545.329712
v -116.881317 0.191929 -548.081116
v -89.724518 -9.501701 -340.979095
v -89.697540 -14.881420 -341.380157
v -116.237610 -15.390261 -336.338959
v -89.751465 -4.121974 -340.578064
v -116.264587 -10.010542 -335.937897
v -89.882538 22.025333 -338.628784
v -116.291534 -4.630815 -335.536835
v -116.422607 21.516491 -333.587585
v -64.641663 1.955070 -209.901077
v -64.614716 -3.424658 -210.302124
v -91.154785 -3.933498 -205.260925
v -64.668640 7.334798 -209.500031
v -91.181732 1.446229 -204.859863
v -64.799683 33.482109 -207.550751
v -91.208710 6.825957 -204.458817
v -91.339752 32.973274 -202.509552
v -61.983429 0.412560 -188.940338
v -61.956451 -4.967169 -189.341400
v -88.496490 -5.476007 -184.300186
v -62.010376 5.792287 -188.539276
v -88.523468 -0.096280 -183.899139
v -62.141418 31.939600 -186.590012
v -88.550415 5.283447 -183.498077
v -88.681458 31.430761 -181.548798
v -184.547119 30.051477 -169.492432
v -187.205322 31.593985 -190.453140
v -187.074280 5.446671 -192.402405
v -184.416077 3.904163 -171.441711
v -204.611023 29.762804 -166.969131
v -207.269287 31.305311 -187.929825
v -207.138245 5.157997 -189.879089
v -204.479980 3.615490 -168.918396
v -163.963928 -0.784338 14.968140
v -164.094971 25.362976 16.917419
v -184.027893 -1.073009 17.491455
v -184.158936 25.074305 19.440735
v -163.139343 -1.264894 21.469727
v -163.270386 24.882420 23.419006
v -183.203308 -1.553564 23.992981
v -183.334351 24.593750 25.942261
v -325.781250 -3.112494 16.425690
v -325.912292 23.034819 18.374969
v -324.956665 -3.593046 22.927216
v -325.087708 22.554266 24.876495
v -405.728638 -4.262743 26.479980
v -405.859680 21.884569 28.429260
v -404.903992 -4.743296 32.981506
v -405.035034 21.404016 34.930786
v -412.574585 -4.361237 27.340942
v -412.705627 21.786076 29.290222
v -411.749939 -4.841793 33.842529
v -411.880981 21.305519 35.791809
v -409.956360 -10.194481 106.732056
v -410.087402 15.952833 108.681305
v -416.802307 -10.292976 107.592987
v -416.933350 15.854338 109.542236
v -404.108215 -3.249565 152.844513
v -404.239258 22.897749 154.793762
v -410.954102 -3.348061 153.705475
v -411.085144 22.799253 155.654724
v -393.911072 -2.557817 233.247375
v -394.042114 23.589502 235.196655
v -400.756958 -2.656313 234.108337
v -400.888000 23.491007 236.057617
v -374.631531 -2.224684 385.264404
v -374.762573 23.922636 387.213623
v -381.477539 -2.323179 386.125366
v -381.608582 23.824141 388.074585
v -348.779602 6.666906 589.106750
v -348.910645 32.814224 591.056030
v -355.625488 6.568411 589.967651
v -355.756531 32.715729 591.916931
v -346.970764 5.612791 603.368103
v -347.101807 31.760107 605.317383
v -353.816772 5.514296 604.229126
v -353.947815 31.661612 606.178406
v -281.342041 7.637159 580.625793
v -281.473083 33.784477 582.575073
v -279.533447 6.583052 594.887085
v -279.664490 32.730370 596.836365
v -147.155518 9.567778 563.750244
v -147.286560 35.715096 565.699524
v -145.346802 8.513670 578.011475
v -145.477844 34.660988 579.960754
v -70.637177 10.668692 554.127136
v -70.768250 36.816010 556.076416
v -68.828491 9.614576 568.388550
v -68.959564 35.761894 570.337830
v -50.371796 10.960253 551.578674
v -50.502869 37.107567 553.527954
v -48.563110 9.906149 565.839844
v -48.694183 36.053467 567.789124
v -77.004913 14.379858 503.917786
v -77.135986 40.527184 505.867065
v -56.739471 14.671423 501.369202
v -56.870544 40.818748 503.318481
v -78.980560 15.531263 488.340088
v -79.111633 41.678589 490.289368
v -58.715088 15.822836 485.791443
v -58.846161 41.970161 487.740723
v -43.263336 14.865309 499.674438
v -43.394409 41.012634 501.623718
v -45.238953 16.016718 484.096741
v -45.370026 42.164040 486.046021
v -0.072327 19.801722 427.600647
v -1.453735 45.949043 428.982178
v 11.190186 19.995604 435.192505
v 9.808777 46.142929 436.573975
v 96.573334 12.198801 350.175598
v 94.632507 38.346130 349.951965
v 97.625488 12.392687 363.717102
v 95.684662 38.540016 363.493530
v 144.476669 15.722254 346.403076
v 142.535843 41.869568 346.179504
v 145.528809 15.916136 359.944641
v 143.587997 42.063461 359.721069
v 156.049423 16.573465 345.491699
v 154.108582 42.720787 345.268066
v 157.101578 16.767347 359.033325
v 155.160751 42.914673 358.809692
v 149.013153 16.558199 404.788879
v 147.072311 42.705521 404.565308
v 160.585892 17.409410 403.877502
v 158.645050 43.556732 403.653931
v 149.884262 16.718721 416.000427
v 147.943420 42.866035 415.776855
v 161.456985 17.569937 415.089111
v 159.516144 43.717247 414.865479
v 341.346710 18.977049 419.417114
v 339.405884 45.124359 419.193420
v 342.217804 19.137575 430.628662
v 340.276978 45.284882 430.405029
v 444.617157 17.294199 411.284485
v 442.676300 43.441505 411.060913
v 445.488281 17.454718 422.496033
v 443.547424 43.602036 422.272522
v 482.802673 20.102880 408.277283
v 480.861877 46.250191 408.053711
v 483.673828 20.263391 419.489014
v 481.733002 46.410713 419.265381
v 489.916321 20.626104 407.717163
v 487.975464 46.773415 407.493530
v 490.787415 20.786619 418.928833
v 488.846588 46.933937 418.705200
v 465.563385 12.867708 186.397369
v 463.622559 39.015015 186.173767
v 472.677002 13.390932 185.837189
v 470.736145 39.538246 185.613525
v 463.563782 12.499174 160.661285
v 461.622925 38.646477 160.437653
v 470.677368 13.022398 160.101074
v 468.736542 39.169708 159.877441
v 254.651566 2.680742 178.462708
v 252.710739 28.828054 178.239105
v 252.651962 2.312204 152.726624
v 250.711136 28.459517 152.503021
v 112.714752 -4.604654 189.640228
v 110.773956 21.542654 189.416626
v 110.715179 -4.973192 163.904114
v 108.774353 21.174120 163.680511
v -61.257721 -2.093714 203.340424
v -63.198456 24.053595 203.116791
v -63.257294 -2.462246 177.604309
v -65.198090 23.685057 177.380707
v -75.783386 -3.162100 204.484314
v -77.724152 22.985201 204.260681
v -77.782959 -3.530638 178.748199
v -79.723785 22.616667 178.524597
v -68.381378 -3.406618 104.453918
v -70.322235 22.740690 104.230286
v -82.907074 -4.475006 105.597778
v -84.847900 21.672297 105.374176
v 311.580688 -8.842752 52.886871
v 294.011292 -9.179602 56.224121
v 316.879700 -8.741158 51.880341
v 293.880249 16.967712 58.173370
v 311.449615 17.304562 54.836121
v 316.748657 17.406157 53.829590
v 333.208740 -17.160242 165.910950
v 315.639343 -17.497091 169.248199
v 338.507751 -17.058645 164.904419
v 315.508301 8.650221 171.197449
v 333.077698 8.987070 167.860199
v 338.376709 9.088667 166.853668
vn -1.0000 -0.0055 0.0066
vn -0.0050 0.9972 0.0743
vn 0.9997 0.0067 -0.0222
vn 0.0099 -0.9988 -0.0485
vn 0.0175 -0.9998 -0.0089
vn 0.9999 0.0043 0.0094
vn -0.9997 -0.0067 0.0222
vn -0.9823 -0.0188 0.1866
vn 1.0000 0.0055 -0.0066
vn 0.0187 -0.9998 -0.0027
vn 0.1875 -0.0721 0.9796
vn -0.9999 -0.0043 -0.0094
vn 0.9823 0.0188 -0.1866
vn -0.0175 0.9998 0.0089
vn -0.0187 0.9998 0.0027
vn 0.0050 -0.9972 -0.0743
vn -0.0099 0.9988 0.0485
vn 0.0057 -0.9975 -0.0706
vn -0.0448 0.9956 0.0818
vn -0.2972 -0.0725 0.9521
vn -0.1875 0.0721 -0.9796
vn 0.2972 0.0725 -0.9521
vn 0.0448 -0.9956 -0.0818
vn -0.0036 0.9972 0.0741
vn -0.0176 0.0742 -0.9971
vn -0.9999 -0.0039 -0.0152
vn 0.0176 -0.0742 0.9971
vn 0.0036 -0.9972 -0.0741
vn -0.0052 0.9973 0.0733
vn 0.9999 0.0039 0.0152
vn -0.9817 -0.0190 0.1895
vn -0.0344 0.9962 -0.0805
vn 0.0344 -0.9962 0.0805
vn 0.0052 -0.9973 -0.0733
vn 0.0051 -0.9972 -0.0740
vn -0.9921 -0.0143 0.1248
vn -0.1255 0.0731 -0.9894
vn 0.9817 0.0190 -0.1895
vn -0.0051 0.9972 0.0740
vn 0.9921 0.0143 -0.1248
vn 0.0050 -0.9972 -0.0740
vn -0.0050 0.9972 0.0740
vn 0.1255 -0.0731 0.9894
vn -0.0111 0.9996 0.0264
vn -0.9940 -0.0131 0.1087
vn 0.9940 0.0131 -0.1087
vn 0.0111 -0.9996 -0.0264
vn 0.0149 -0.9970 -0.0756
vn 0.0064 0.0744 -0.9972
vn -0.0149 0.9970 0.0756
vn -0.0064 -0.0744 0.9972
vn 0.9977 -0.0001 0.0683
vn 0.0324 -0.9889 0.1448
vn -0.0051 0.9973 0.0734
vn 0.0051 -0.9973 -0.0734
vn -0.9977 0.0001 -0.0683
vn -0.0152 0.9999 -0.0067
vn -0.9917 -0.0145 0.1280
vn -0.0324 0.9889 -0.1448
vn 0.9917 0.0145 -0.1280
vn -0.0144 0.9999 -0.0004
vn 0.9919 0.0144 -0.1259
vn 0.0152 -0.9999 0.0067
vn -0.9919 -0.0144 0.1259
vn 0.0195 -0.9990 0.0411
vn 0.9919 0.0144 -0.1258
vn 0.0144 -0.9999 0.0004
vn -0.9919 -0.0144 0.1258
vn -0.9919 -0.0144 0.1264
vn -0.0195 0.9990 -0.0411
vn 0.9919 0.0144 -0.1264
vn 0.0265 -0.9986 -0.0457
vn 0.0458 0.9979 -0.0450
vn -0.7105 0.0242 -0.7033
vn -0.0266 0.9986 0.0458
vn 0.6621 -0.0285 0.7489
vn 0.0740 -0.9972 0.0085
vn -0.6312 -0.0229 -0.7753
vn -0.0461 -0.9979 0.0452
vn 0.6438 0.0240 0.7648
vn -0.0740 0.9972 -0.0085
vn 0.0775 0.0143 0.9969
vn -0.0775 -0.0143 -0.9969
vn 0.9942 0.0731 -0.0783
vn -0.9942 -0.0731 0.0783
vn -0.0075 0.9999 -0.0137
vn 0.0151 0.9998 -0.0155
vn 0.0857 -0.0022 -0.9963
vn 0.0075 -0.9999 0.0137
vn -0.0857 0.0022 0.9963
vn 0.0787 0.0144 0.9968
vn -0.0151 -0.9998 0.0155
vn -0.0787 -0.0144 -0.9968
vn -0.9941 -0.0731 0.0796
vn -0.0754 0.9968 -0.0266
vn 0.0754 -0.9968 0.0266
vn 0.9941 0.0731 -0.0796
vn 0.0379 -0.0057 -0.9993
vn -0.0521 0.9986 -0.0103
vn -0.0379 0.0057 0.9993
vn -0.0478 0.9988 -0.0106
vn 0.0478 -0.9988 0.0106
vn -0.0132 -0.9998 0.0153
vn -0.0778 -0.0143 -0.9969
vn 0.0521 -0.9986 0.0103
vn 0.0778 0.0143 0.9969
vn 0.0132 0.9998 -0.0153
vn -0.9948 -0.0732 0.0706
vn -0.0740 0.9972 -0.0077
vn 0.9948 0.0732 -0.0706
vn 0.0740 -0.9972 0.0077
vn 0.8996 -0.0280 0.4357
vn -0.0057 0.9975 0.0706
vn -0.8996 0.0280 -0.4357
usemtl collision
s off
f 248//34 235//34 228//34 236//34
f 250//35 251//35 275//35 278//35
f 246//36 241//36 230//36 242//36
f 234//37 245//37 264//37 258//37
f 244//38 240//38 229//38 243//38
f 242//39 230//39 261//39 262//39
f 235//40 226//40 256//40 249//40
f 228//41 250//41 278//41 274//41
f 241//42 232//42 252//42 253//42
f 233//38 244//38 243//38 225//38
f 227//43 237//43 244//43 233//43
f 237//43 231//43 240//43 244//43
f 243//44 245//44 234//44 225//44
f 229//44 242//44 245//44 243//44
f 226//45 234//45 258//45 259//45
f 240//36 246//36 242//36 229//36
f 231//42 239//42 246//42 240//42
f 239//42 232//42 241//42 246//42
f 251//35 252//35 276//35 275//35
f 236//41 228//41 274//41 267//41
f 232//46 239//46 272//46 271//46
f 233//34 248//34 236//34 227//34
f 225//40 234//40 248//40 233//40
f 234//40 226//40 235//40 248//40
f 257//47 249//47 256//47 255//47
f 253//47 257//47 255//47 254//47
f 252//48 251//48 257//48 253//48
f 251//48 250//48 249//48 257//48
f 230//36 241//36 253//36 254//36
f 237//49 227//49 268//49 269//49
f 228//34 235//34 249//34 250//34
f 255//50 256//50 263//50 265//50
f 264//44 260//44 259//44 258//44
f 259//51 260//51 491//51 492//51
f 262//44 261//44 260//44 264//44
f 260//51 261//51 493//51 491//51
f 230//39 254//39 266//39 261//39
f 256//45 226//45 259//45 263//45
f 254//50 255//50 265//50 266//50
f 245//37 242//37 262//37 264//37
f 275//35 276//35 286//35 285//35
f 271//46 272//46 282//46 281//46
f 278//52 288//52 293//52 292//52
f 272//46 273//46 283//46 282//46
f 268//53 267//53 277//53 270//53
f 276//46 271//46 281//46 286//46
f 231//49 237//49 269//49 273//49
f 239//46 231//46 273//46 272//46
f 227//41 236//41 267//41 268//41
f 252//46 232//46 271//46 276//46
f 287//54 280//54 281//54 282//54
f 281//54 280//54 285//54 286//54
f 279//54 287//54 282//54 283//54
f 238//54 247//54 287//54 279//54
f 247//54 284//54 280//54 287//54
f 280//54 284//54 288//54 285//54
f 284//55 247//55 289//55 291//55
f 269//49 268//49 238//49 279//49
f 278//35 275//35 285//35 288//35
f 273//49 269//49 279//49 283//49
f 277//44 290//44 298//44 295//44
f 292//35 293//35 301//35 300//35
f 289//54 294//54 302//54 297//54
f 247//55 238//55 294//55 289//55
f 274//53 278//53 292//53 290//53
f 288//55 284//55 291//55 293//55
f 238//56 268//56 270//56 294//56
f 267//53 274//53 290//53 277//53
f 300//57 301//57 309//57 308//57
f 297//58 302//58 310//58 305//58
f 301//58 299//58 307//58 309//58
f 270//44 277//44 295//44 296//44
f 294//49 270//49 296//49 302//49
f 291//54 289//54 297//54 299//54
f 290//44 292//44 300//44 298//44
f 293//54 291//54 299//54 301//54
f 307//54 305//54 313//54 315//54
f 310//49 304//49 312//49 318//49
f 314//59 311//59 323//59 325//59
f 295//60 298//60 306//60 303//60
f 296//60 295//60 303//60 304//60
f 302//61 296//61 304//61 310//61
f 299//58 297//58 305//58 307//58
f 298//60 300//60 308//60 306//60
f 312//41 311//41 313//41 318//41
f 314//41 316//41 317//41 315//41
f 311//41 314//41 315//41 313//41
f 308//62 316//62 326//62 324//62
f 309//54 307//54 315//54 317//54
f 305//54 310//54 318//54 313//54
f 308//35 309//35 317//35 316//35
f 304//63 303//63 319//63 320//63
f 325//64 323//64 331//64 333//64
f 324//65 326//65 334//65 332//65
f 321//66 320//66 328//66 329//66
f 311//59 312//59 321//59 323//59
f 306//63 308//63 324//63 322//63
f 312//67 304//67 320//67 321//67
f 316//59 314//59 325//59 326//59
f 303//63 306//63 322//63 319//63
f 329//68 328//68 336//68 337//68
f 331//69 329//69 337//69 339//69
f 334//70 333//70 345//70 344//70
f 322//71 324//71 332//71 330//71
f 319//71 322//71 330//71 327//71
f 320//71 319//71 327//71 328//71
f 326//64 325//64 333//64 334//64
f 323//64 321//64 329//64 331//64
f 336//44 335//44 339//44 337//44
f 338//44 340//44 342//44 341//44
f 335//44 338//44 341//44 339//44
f 332//72 334//72 342//72 340//72
f 333//69 331//69 339//69 341//69
f 330//73 332//73 340//73 338//73
f 327//73 330//73 338//73 335//73
f 328//73 327//73 335//73 336//73
f 345//74 346//74 350//74 349//74
f 342//75 334//75 344//75 343//75
f 341//76 342//76 343//76 346//76
f 333//74 341//74 346//74 345//74
f 348//69 349//69 350//69 347//69
f 343//75 344//75 348//75 347//75
f 343//77 347//77 354//77 352//77
f 344//70 345//70 349//70 348//70
f 352//35 354//35 358//35 356//35
f 347//78 350//78 353//78 354//78
f 346//79 343//79 352//79 351//79
f 350//80 346//80 351//80 353//80
f 355//76 356//76 358//76 357//76
f 353//81 357//81 361//81 359//81
f 353//49 351//49 355//49 357//49
f 351//73 352//73 356//73 355//73
f 359//49 361//49 365//49 363//49
f 354//82 353//82 359//82 360//82
f 358//83 354//83 360//83 362//83
f 357//84 358//84 362//84 361//84
f 365//85 366//85 372//85 371//85
f 361//76 362//76 366//76 365//76
f 362//35 360//35 364//35 366//35
f 360//70 359//70 363//70 364//70
f 368//69 367//69 369//69 370//69
f 366//35 364//35 368//35 370//35
f 364//70 363//70 367//70 368//70
f 363//49 365//49 369//49 367//49
f 373//86 371//86 375//86 377//86
f 366//87 370//87 374//87 372//87
f 369//88 365//88 371//88 373//88
f 370//89 369//89 373//89 374//89
f 376//90 378//90 382//90 380//90
f 374//91 373//91 377//91 378//91
f 372//92 374//92 378//92 376//92
f 371//93 372//93 376//93 375//93
f 380//94 382//94 386//94 384//94
f 375//95 376//95 380//95 379//95
f 377//96 375//96 379//96 381//96
f 378//97 377//97 381//97 382//97
f 385//98 383//98 387//98 389//98
f 379//99 380//99 384//99 383//99
f 381//100 379//100 383//100 385//100
f 382//101 381//101 385//101 386//101
f 388//35 390//35 394//35 392//35
f 386//102 385//102 389//102 390//102
f 384//103 386//103 390//103 388//103
f 383//104 384//104 388//104 387//104
f 391//76 392//76 394//76 393//76
f 392//76 391//76 397//76 398//76
f 389//49 387//49 391//49 393//49
f 390//69 389//69 393//69 394//69
f 397//49 395//49 399//49 401//49
f 388//35 392//35 398//35 396//35
f 387//70 388//70 396//70 395//70
f 391//49 387//49 395//49 397//49
f 400//35 402//35 406//35 404//35
f 398//76 397//76 401//76 402//76
f 396//35 398//35 402//35 400//35
f 395//70 396//70 400//70 399//70
f 405//49 403//49 407//49 409//49
f 399//70 400//70 404//70 403//70
f 401//49 399//49 403//49 405//49
f 402//76 401//76 405//76 406//76
f 407//73 408//73 410//73 409//73
f 406//76 405//76 409//76 410//76
f 404//35 406//35 410//35 408//35
f 407//49 403//49 411//49 413//49
f 413//49 411//49 415//49 417//49
f 408//73 407//73 413//73 414//73
f 404//35 408//35 414//35 412//35
f 403//69 404//69 412//69 411//69
f 415//70 416//70 418//70 417//70
f 411//69 412//69 416//69 415//69
f 412//35 414//35 418//35 416//35
f 418//35 414//35 420//35 422//35
f 420//73 419//73 421//73 422//73
f 413//49 417//49 421//49 419//49
f 421//105 417//105 423//105 425//105
f 414//76 413//76 419//76 420//76
f 424//106 426//106 430//106 428//106
f 417//107 418//107 424//107 423//107
f 418//108 422//108 426//108 424//108
f 422//109 421//109 425//109 426//109
f 429//110 427//110 431//110 433//110
f 423//111 424//111 428//111 427//111
f 425//112 423//112 427//112 429//112
f 426//113 425//113 429//113 430//113
f 432//114 434//114 438//114 436//114
f 430//115 429//115 433//115 434//115
f 428//114 430//114 434//114 432//114
f 427//116 428//116 432//116 431//116
f 435//117 436//117 438//117 437//117
f 431//116 432//116 436//116 435//116
f 433//110 431//110 435//110 437//110
f 433//110 437//110 441//110 439//110
f 439//110 441//110 445//110 443//110
f 437//117 438//117 442//117 441//117
f 434//118 433//118 439//118 440//118
f 438//114 434//114 440//114 442//114
f 444//115 443//115 445//115 446//115
f 442//119 446//119 450//119 448//119
f 442//114 440//114 444//114 446//114
f 440//118 439//118 443//118 444//118
f 448//120 450//120 454//120 452//120
f 441//121 442//121 448//121 447//121
f 445//122 441//122 447//122 449//122
f 446//123 445//123 449//123 450//123
f 454//115 453//115 457//115 458//115
f 450//124 449//124 453//124 454//124
f 449//125 447//125 451//125 453//125
f 447//126 448//126 452//126 451//126
f 457//110 455//110 459//110 461//110
f 453//110 451//110 455//110 457//110
f 451//116 452//116 456//116 455//116
f 452//114 454//114 458//114 456//114
f 459//117 460//117 462//117 461//117
f 455//127 456//127 464//127 463//127
f 456//114 458//114 462//114 460//114
f 458//115 457//115 461//115 462//115
f 465//110 463//110 467//110 469//110
f 456//128 460//128 466//128 464//128
f 459//129 455//129 463//129 465//129
f 460//130 459//130 465//130 466//130
f 467//116 468//116 470//116 469//116
f 468//131 467//131 473//131 474//131
f 464//114 466//114 470//114 468//114
f 466//117 465//117 469//117 470//117
f 472//132 474//132 478//132 476//132
f 463//133 464//133 472//133 471//133
f 464//134 468//134 474//134 472//134
f 467//135 463//135 471//135 473//135
f 477//136 475//136 479//136 481//136
f 474//137 473//137 477//137 478//137
f 473//138 471//138 475//138 477//138
f 471//139 472//139 476//139 475//139
f 479//115 480//115 484//115 483//115
f 475//124 476//124 480//124 479//124
f 476//140 478//140 482//140 480//140
f 478//126 477//126 481//126 482//126
f 483//118 484//118 486//118 485//118
f 480//114 482//114 486//114 484//114
f 485//141 486//141 490//141 489//141
f 481//110 479//110 483//110 485//110
f 488//116 487//116 489//116 490//116
f 486//142 482//142 488//142 490//142
f 482//143 481//143 487//143 488//143
f 481//144 485//144 489//144 487//144
f 495//35 494//35 500//35 501//35
f 493//46 496//46 502//46 499//46
f 261//145 266//145 496//145 493//145
f 265//146 263//146 494//146 495//146
f 263//147 259//147 492//147 494//147
f 266//146 265//146 495//146 496//146
f 497//44 499//44 502//44 501//44
f 498//44 497//44 501//44 500//44
f 491//49 493//49 499//49 497//49
f 496//35 495//35 501//35 502//35
f 494//41 492//41 498//41 500//41
f 492//49 491//49 497//49 498//49
o Cube.002_Cube.011
v -188.188293 2.027496 127.045052
v -188.188293 12.816944 127.045052
v -190.034821 2.027496 116.414787
v -190.034821 12.816944 116.414787
v -165.250351 2.027496 123.060638
v -165.250351 12.816944 123.060638
v -167.096863 2.027496 112.430367
v -167.096863 12.816944 112.430367
v -189.111557 2.027496 121.729919
v -188.188293 7.422220 127.045052
v -189.111557 12.816944 121.729919
v -190.034821 7.422220 116.414787
v -172.412003 2.027496 113.353630
v -172.412003 12.816944 113.353630
v -167.096863 7.422220 112.430367
v -166.173599 2.027496 117.745499
v -166.173599 12.816944 117.745499
v -165.250351 7.422220 123.060638
v -170.565475 2.027496 123.983894
v -171.488739 2.027496 118.668762
v -170.565475 7.422220 123.983894
v -166.173599 7.422220 117.745499
v -172.412003 7.422220 113.353630
v -189.111557 7.422220 121.729919
v -189.111557 39.037148 121.729919
v -190.034821 39.037148 116.414787
v -172.412003 39.037148 113.353630
v -167.096863 39.037148 112.430367
v -166.173599 39.037148 117.745499
v -165.250351 39.037148 123.060638
v -170.565475 39.037148 123.983894
v -188.188293 39.037148 127.045052
v -171.488739 39.037148 118.668762
v -191.379700 7.422220 231.300903
v -191.379700 12.816944 231.300903
v -161.827744 7.422220 401.429047
v -168.441742 12.816944 227.316498
v -168.441742 7.422220 227.316498
v -191.379700 39.037148 231.300903
v -173.756882 7.422220 228.239746
v -173.756882 39.037148 228.239746
v -168.441742 39.037148 227.316498
v -171.283508 7.422220 346.992981
v -171.283508 12.816944 346.992981
v -155.707489 7.422220 436.662872
v -148.345566 12.816944 343.008545
v -148.345566 7.422220 343.008545
v -171.283508 39.037148 346.992981
v -153.660706 7.422220 343.931824
v -153.660706 39.037148 343.931824
v -148.345566 39.037148 343.008545
v -161.827744 12.816944 401.429047
v -80.707039 12.816944 423.634979
v -138.889801 12.816944 397.444641
v -138.889801 7.422220 397.444641
v -161.827744 39.037148 401.429047
v -144.204926 7.422220 398.367889
v -144.204926 39.037148 398.367889
v -138.889801 39.037148 397.444641
v -155.707489 12.816944 436.662872
v -138.084671 12.816944 433.601715
v -132.769531 12.816944 432.678467
v -132.769531 7.422220 432.678467
v -155.707489 39.037148 436.662872
v -138.084671 7.422220 433.601715
v -138.084671 39.037148 433.601715
v -132.769531 39.037148 432.678467
v -86.827301 12.816944 388.401154
v -86.827301 39.037148 388.401154
v -80.707039 39.037148 423.634979
v -50.205536 12.816944 397.087646
v -56.325790 12.816944 361.853821
v -56.325790 39.037148 361.853821
v -50.205536 39.037148 397.087646
v 31.053360 12.816944 318.637756
v 24.933105 12.816944 283.403931
v 24.933105 39.037148 283.403931
v 31.053360 39.037148 318.637756
vn -0.9852 0.0000 0.1711
vn -0.1711 0.0000 -0.9852
vn 0.9852 0.0000 -0.1711
vn 0.0000 -1.0000 0.0000
vn 0.9995 0.0000 0.0306
vn 0.1711 0.0000 0.9852
vn -0.9995 0.0000 -0.0306
vn 0.0000 1.0000 0.0000
vn 0.6946 0.0000 0.7194
vn 0.6565 0.0000 0.7543
vn -0.6565 0.0000 -0.7543
vn -0.6946 0.0000 -0.7194
usemtl collision
s off
f 526//148 513//148 506//148 514//148
f 525//149 516//149 510//149 517//149
f 524//150 519//150 508//150 520//150
f 512//151 523//151 542//151 536//151
f 522//151 518//151 507//151 521//151
f 520//152 508//152 539//152 540//152
f 513//148 504//148 534//148 527//148
f 510//149 516//149 529//149 530//149
f 519//150 510//150 530//150 531//150
f 511//151 522//151 521//151 503//151
f 505//151 515//151 522//151 511//151
f 515//151 509//151 518//151 522//151
f 521//153 523//153 512//153 503//153
f 507//153 520//153 523//153 521//153
f 504//154 512//154 536//154 537//154
f 518//150 524//150 520//150 507//150
f 509//150 517//150 524//150 518//150
f 517//150 510//150 519//150 524//150
f 515//149 525//149 517//149 509//149
f 505//149 514//149 525//149 515//149
f 514//149 506//149 516//149 525//149
f 511//148 526//148 514//148 505//148
f 503//148 512//148 526//148 511//148
f 512//148 504//148 513//148 526//148
f 535//155 527//155 534//155 533//155
f 531//155 535//155 533//155 532//155
f 530//155 529//155 535//155 531//155
f 529//155 528//155 527//155 535//155
f 508//150 519//150 531//150 532//150
f 516//149 506//149 528//149 529//149
f 506//148 513//148 527//148 528//148
f 533//155 534//155 541//155 543//155
f 536//151 542//151 551//151 545//151
f 544//155 543//155 552//155 553//155
f 537//148 536//148 545//148 546//148
f 540//150 539//150 548//150 549//150
f 508//152 532//152 544//152 539//152
f 534//154 504//154 537//154 541//154
f 532//155 533//155 543//155 544//155
f 523//151 520//151 540//151 542//151
f 549//150 548//150 556//150 557//150
f 550//148 546//148 554//148 558//148
f 551//151 549//151 557//151 559//151
f 552//155 550//155 558//155 560//155
f 539//150 544//150 553//150 548//150
f 543//155 541//155 550//155 552//155
f 542//151 540//151 549//151 551//151
f 541//148 537//148 546//148 550//148
f 558//148 554//148 562//148 566//148
f 559//151 557//151 565//151 567//151
f 560//155 558//155 566//155 568//155
f 556//149 561//149 571//149 570//149
f 546//148 545//148 538//148 554//148
f 553//155 552//155 560//155 561//155
f 545//151 551//151 559//151 538//151
f 548//150 553//150 561//150 556//150
f 567//153 563//153 562//153 547//153
f 563//153 564//153 569//153 568//153
f 565//153 564//153 563//153 567//153
f 562//153 563//153 568//153 566//153
f 557//150 556//150 564//150 565//150
f 554//148 538//148 547//148 562//148
f 561//155 560//155 568//155 569//155
f 538//151 559//151 567//151 547//151
f 571//155 572//155 576//155 575//155
f 569//153 564//153 555//153 572//153
f 561//155 569//155 572//155 571//155
f 564//151 556//151 570//151 555//151
f 576//156 573//156 577//156 580//156
f 555//151 570//151 574//151 573//151
f 572//157 555//157 573//157 576//157
f 570//158 571//158 575//158 574//158
f 578//150 579//150 580//150 577//150
f 574//159 575//159 579//159 578//159
f 575//155 576//155 580//155 579//155
f 573//151 574//151 578//151 577//151
