# Blender v2.91.2 OBJ File: 'maps_voitures.blend'
# www.blender.org
mtllib map6.mtl
o Cube.004_Cube.005
v -172.420990 -59.981804 29.335464
v -172.420990 28.942095 29.335464
v -172.420990 -59.981804 -59.588432
v -172.420990 5.363861 -59.588432
v -83.497101 -59.981804 29.335464
v -83.497101 28.942095 29.335464
v -83.497101 -59.981804 -59.588432
v -83.497101 5.363861 -59.588432
vn -1.0000 0.0000 0.0000
vn 0.0000 0.0000 -1.0000
vn 1.0000 0.0000 0.0000
vn 0.0000 0.0000 1.0000
vn 0.0000 -1.0000 0.0000
vn 0.0000 0.9666 -0.2563
usemtl Matériau
s off
f 1//1 4//1 3//1
f 4//2 7//2 3//2
f 8//3 5//3 7//3
f 6//4 1//4 5//4
f 7//5 1//5 3//5
f 4//6 6//6 8//6
f 1//1 2//1 4//1
f 4//2 8//2 7//2
f 8//3 6//3 5//3
f 6//4 2//4 1//4
f 7//5 5//5 1//5
f 4//6 2//6 6//6
o Cube.005_Cube.006
v -82.101517 -57.221313 95.909180
v -82.101517 31.702583 95.909180
v -84.937927 -57.221313 184.787827
v -84.937927 8.124351 184.787827
v -170.980164 -57.221313 93.072769
v -170.980164 31.702583 93.072769
v -173.816574 -57.221313 181.951416
v -173.816574 8.124351 181.951416
vn 0.9995 0.0000 0.0319
vn -0.0319 0.0000 0.9995
vn -0.9995 0.0000 -0.0319
vn 0.0319 0.0000 -0.9995
vn 0.0000 -1.0000 0.0000
vn -0.0082 0.9666 0.2562
usemtl Matériau
s off
f 9//7 12//7 11//7
f 12//8 15//8 11//8
f 16//9 13//9 15//9
f 14//10 9//10 13//10
f 15//11 9//11 11//11
f 12//12 14//12 16//12
f 9//7 10//7 12//7
f 12//8 16//8 15//8
f 16//9 14//9 13//9
f 14//10 10//10 9//10
f 15//11 13//11 9//11
f 12//12 10//12 14//12
