# Blender3D v249 OBJ File: 
# www.blender3d.org
mtllib car.mtl
v 0.191476 -0.379829 -0.452175
v 0.191476 -0.379829 0.307482
v -0.568181 -0.379829 0.307482
v -0.568181 -0.379829 -0.452175
v 0.191476 0.379829 -0.452175
v 0.191476 0.379829 0.307482
v -0.568181 0.379829 0.307482
v -0.568181 0.379829 -0.452175
vn -0.000000 -1.000000 0.000000
vn 0.000000 1.000000 -0.000000
vn 1.000000 0.000000 0.000000
vn -0.000000 -0.000000 1.000000
vn -1.000000 -0.000000 -0.000000
vn 0.000000 0.000000 -1.000000
usemtl Material.002
s off
f 1//1 2//1 3//1 4//1
f 5//2 8//2 7//2 6//2
f 1//3 5//3 6//3 2//3
f 2//4 6//4 7//4 3//4
f 3//5 7//5 8//5 4//5
f 5//6 1//6 4//6 8//6
